<svg xmlns="http://www.w3.org/2000/svg" viewBox="0 0 400 300" stroke-linecap="round" stroke-linejoin="round">
  <defs>
    <linearGradient id="bodyGrad" x1="0%" y1="0%" x2="100%" y2="100%">
      <stop offset="0%" stop-color="#3a332b"/>
      <stop offset="100%" stop-color="#1a1612"/>
    </linearGradient>
    <linearGradient id="muscleGrad" x1="0%" y1="0%" x2="100%" y2="100%">
      <stop offset="0%" stop-color="#c8a45a"/>
      <stop offset="50%" stop-color="#e8d5a3"/>
      <stop offset="100%" stop-color="#c8a45a"/>
    </linearGradient>
    <radialGradient id="glowGrad" cx="50%" cy="50%" r="50%">
      <stop offset="0%" stop-color="#c8a45a" stop-opacity="0.3"/>
      <stop offset="100%" stop-color="#c8a45a" stop-opacity="0"/>
    </radialGradient>
    <linearGradient id="groundGrad" x1="0%" y1="0%" x2="0%" y2="100%">
      <stop offset="0%" stop-color="#1a1612"/>
      <stop offset="100%" stop-color="#0d0b08"/>
    </linearGradient>
  </defs>
  <rect width="400" height="300" fill="#0d0b08"/>
  <rect x="0" y="268" width="400" height="32" fill="url(#groundGrad)"/>
  <line x1="20" y1="270" x2="380" y2="270" stroke="#3a332b" stroke-width="0.5" opacity="0.5"/>
  <g stroke="#c8a45a" stroke-width="0.8" opacity="0.15">
    <line x1="30" y1="100" x2="100" y2="100"/><line x1="20" y1="120" x2="110" y2="120"/>
    <line x1="40" y1="140" x2="120" y2="140"/><line x1="25" y1="160" x2="115" y2="160"/>
    <line x1="35" y1="180" x2="105" y2="180"/><line x1="45" y1="200" x2="110" y2="200"/>
  </g>
  <g stroke="#c8a45a" stroke-width="0.4" opacity="0.1">
    <line x1="50" y1="110" x2="108" y2="110"/><line x1="30" y1="130" x2="112" y2="130"/>
    <line x1="55" y1="150" x2="118" y2="150"/><line x1="40" y1="170" x2="108" y2="170"/>
    <line x1="60" y1="190" x2="112" y2="190"/>
  </g>
  <circle cx="210" cy="62" r="16" fill="url(#bodyGrad)" stroke="#c8a45a" stroke-width="1.2"/>
  <path d="M205,78 L205,90 L215,90 L215,78" fill="url(#bodyGrad)" stroke="none"/>
  <path d="M195,88 L225,88 L230,95 Q235,120 228,150 L195,150 Q188,120 192,95 Z" fill="url(#bodyGrad)" stroke="#c8a45a" stroke-width="0.8"/>
  <path d="M195,95 Q175,105 165,95 Q158,88 150,92" fill="none" stroke="#3a332b" stroke-width="10"/>
  <path d="M195,95 Q175,105 165,95 Q158,88 150,92" fill="none" stroke="#c8a45a" stroke-width="0.6" opacity="0.5"/>
  <path d="M225,95 Q245,85 260,95 Q268,102 275,98" fill="none" stroke="url(#bodyGrad)" stroke-width="10"/>
  <path d="M225,95 Q245,85 260,95 Q268,102 275,98" fill="none" stroke="#c8a45a" stroke-width="0.8"/>
  <path d="M200,148 Q185,175 170,200 Q160,220 155,240 Q152,255 160,268" fill="none" stroke="url(#bodyGrad)" stroke-width="12"/>
  <path d="M200,148 Q185,175 170,200 Q160,220 155,240 Q152,255 160,268" fill="none" stroke="#c8a45a" stroke-width="0.7"/>
  <path d="M220,148 Q240,170 250,190 Q255,200 248,215 Q240,235 245,250 Q248,260 255,268" fill="none" stroke="url(#bodyGrad)" stroke-width="13"/>
  <path d="M220,148 Q240,170 250,190 Q255,200 248,215 Q240,235 245,250 Q248,260 255,268" fill="none" stroke="#c8a45a" stroke-width="0.8"/>
  <ellipse cx="250" cy="240" rx="30" ry="40" fill="url(#glowGrad)"/>
  <g stroke="url(#muscleGrad)" fill="none" opacity="0.9">
    <path d="M243,210 Q248,215 252,225 Q255,235 253,248 Q250,258 248,265" stroke-width="1.5"/>
    <path d="M257,210 Q253,215 250,225 Q247,235 249,248 Q251,258 253,265" stroke-width="1.5"/>
    <path d="M245,215 Q250,225 251,240" stroke-width="0.7"/>
    <path d="M247,213 Q251,223 252,238" stroke-width="0.7"/>
    <path d="M249,212 Q252,222 252,236" stroke-width="0.7"/>
    <path d="M252,212 Q253,222 253,236" stroke-width="0.6"/>
    <path d="M255,213 Q253,223 252,238" stroke-width="0.6"/>
    <path d="M246,230 Q249,240 250,252" stroke-width="0.5" opacity="0.6"/>
    <path d="M254,230 Q252,240 251,252" stroke-width="0.5" opacity="0.6"/>
    <path d="M249,255 Q250,262 250,268" stroke-width="1.2"/>
    <path d="M252,255 Q251,262 251,268" stroke-width="1.2"/>
    <line x1="244" y1="220" x2="256" y2="218" stroke-width="0.3" opacity="0.4"/>
    <line x1="244" y1="228" x2="256" y2="226" stroke-width="0.3" opacity="0.4"/>
    <line x1="245" y1="236" x2="255" y2="234" stroke-width="0.3" opacity="0.4"/>
    <line x1="246" y1="244" x2="254" y2="242" stroke-width="0.3" opacity="0.4"/>
  </g>
  <g stroke="#c8a45a" fill="none" opacity="0.3" stroke-width="0.5">
    <path d="M156,230 Q158,240 159,250"/><path d="M160,228 Q161,238 161,248"/>
    <path d="M163,230 Q163,240 162,250"/>
  </g>
  <path d="M155,266 Q148,268 145,270 Q142,274 150,276 L168,276 Q172,274 170,270 Q168,267 162,266" fill="#3a332b" stroke="#c8a45a" stroke-width="0.6"/>
  <path d="M250,266 Q245,268 243,270 Q240,274 248,276 L266,276 Q270,274 268,270 Q266,267 260,266" fill="#3a332b" stroke="#c8a45a" stroke-width="0.6"/>
  <g fill="#c8a45a" opacity="0.4">
    <circle cx="120" cy="135" r="1.5"/><circle cx="95" cy="155" r="1"/>
    <circle cx="110" cy="175" r="1.2"/><circle cx="85" cy="145" r="0.8"/>
    <circle cx="130" cy="195" r="1"/><circle cx="100" cy="115" r="1.3"/>
    <circle cx="75" cy="165" r="0.7"/><circle cx="115" cy="125" r="0.9"/>
  </g>
  <g stroke="#c8a45a" stroke-width="0.6" opacity="0.2">
    <line x1="270" y1="75" x2="310" y2="72"/><line x1="280" y1="95" x2="320" y2="92"/>
    <line x1="275" y1="115" x2="315" y2="113"/><line x1="285" y1="135" x2="330" y2="132"/>
  </g>
  <g stroke="#c8a45a" stroke-width="0.5" opacity="0.35">
    <line x1="260" y1="225" x2="310" y2="210"/><line x1="310" y1="210" x2="340" y2="210"/>
    <circle cx="260" cy="225" r="2" fill="none"/>
    <line x1="258" y1="250" x2="320" y2="248"/><line x1="320" y1="248" x2="350" y2="248"/>
    <circle cx="258" cy="250" r="2" fill="none"/>
  </g>
  <g stroke="#c8a45a" stroke-width="0.4" opacity="0.25">
    <line x1="342" y1="210" x2="370" y2="210"/><line x1="352" y1="248" x2="375" y2="248"/>
  </g>
  <path d="M20,30 L80,30 L90,20 L100,40 L110,15 L120,45 L130,30 L380,30" fill="none" stroke="#c8a45a" stroke-width="0.8" opacity="0.2"/>
  <path d="M10,10 L30,10 M10,10 L10,30" stroke="#c8a45a" stroke-width="1" opacity="0.3"/>
  <path d="M390,10 L370,10 M390,10 L390,30" stroke="#c8a45a" stroke-width="1" opacity="0.3"/>
  <path d="M10,290 L30,290 M10,290 L10,270" stroke="#c8a45a" stroke-width="1" opacity="0.3"/>
  <path d="M390,290 L370,290 M390,290 L390,270" stroke="#c8a45a" stroke-width="1" opacity="0.3"/>
</svg>
