<svg xmlns="http://www.w3.org/2000/svg" viewBox="0 0 200 160">
  <path d="M100 140 L100 90" stroke="#c8a45a" stroke-width="1.5" fill="none"/>
  <path d="M100 90 L75 40" stroke="#c8a45a" stroke-width="1.5" fill="none"/>
  <path d="M100 90 L100 30" stroke="#c8a45a" stroke-width="1.5" fill="none"/>
  <path d="M100 90 L125 40" stroke="#c8a45a" stroke-width="1.5" fill="none"/>
  <path d="M75 40 Q60 20 70 15 Q80 10 85 30 Q87 38 75 40Z" stroke="#c8a45a" stroke-width="1.5" fill="#c8a45a" fill-opacity="0.12"/>
  <path d="M100 30 Q90 10 100 8 Q110 10 100 30Z" stroke="#c8a45a" stroke-width="1.5" fill="#c8a45a" fill-opacity="0.12"/>
  <path d="M125 40 Q140 20 130 15 Q120 10 115 30 Q113 38 125 40Z" stroke="#c8a45a" stroke-width="1.5" fill="#c8a45a" fill-opacity="0.12"/>
  <line x1="70" y1="27" x2="78" y2="35" stroke="#c8a45a" stroke-width="0.8" opacity="0.5"/>
  <line x1="130" y1="27" x2="122" y2="35" stroke="#c8a45a" stroke-width="0.8" opacity="0.5"/>
</svg>
