<svg xmlns="http://www.w3.org/2000/svg" viewBox="0 0 200 160">
  <rect x="20" y="70" width="25" height="70" stroke="#c8a45a" stroke-width="1.5" fill="none"/>
  <rect x="50" y="40" width="20" height="100" stroke="#c8a45a" stroke-width="1.5" fill="none"/>
  <rect x="75" y="55" width="22" height="85" stroke="#c8a45a" stroke-width="1.5" fill="none"/>
  <rect x="102" y="25" width="18" height="115" stroke="#c8a45a" stroke-width="1.5" fill="none"/>
  <rect x="125" y="50" width="25" height="90" stroke="#c8a45a" stroke-width="1.5" fill="none"/>
  <rect x="155" y="65" width="22" height="75" stroke="#c8a45a" stroke-width="1.5" fill="none"/>
  <circle cx="32" cy="85" r="1.5" fill="#c8a45a" opacity="0.6"/>
  <circle cx="32" cy="100" r="1.5" fill="#c8a45a" opacity="0.6"/>
  <circle cx="60" cy="55" r="1.5" fill="#c8a45a" opacity="0.6"/>
  <circle cx="60" cy="70" r="1.5" fill="#c8a45a" opacity="0.6"/>
  <circle cx="60" cy="85" r="1.5" fill="#c8a45a" opacity="0.6"/>
  <circle cx="111" cy="40" r="1.5" fill="#c8a45a" opacity="0.6"/>
  <circle cx="111" cy="55" r="1.5" fill="#c8a45a" opacity="0.6"/>
  <circle cx="111" cy="70" r="1.5" fill="#c8a45a" opacity="0.6"/>
  <circle cx="137" cy="65" r="1.5" fill="#c8a45a" opacity="0.6"/>
  <circle cx="137" cy="80" r="1.5" fill="#c8a45a" opacity="0.6"/>
  <circle cx="166" cy="80" r="1.5" fill="#c8a45a" opacity="0.6"/>
  <line x1="15" y1="140" x2="185" y2="140" stroke="#c8a45a" stroke-width="1.5"/>
</svg>
