<svg xmlns="http://www.w3.org/2000/svg" viewBox="0 0 400 300" stroke-linecap="round" stroke-linejoin="round">
  <defs>
    <linearGradient id="bottleGrad" x1="0%" y1="0%" x2="100%" y2="100%">
      <stop offset="0%" stop-color="#e8d5a3" stop-opacity="0.6"/>
      <stop offset="50%" stop-color="#c8a45a" stop-opacity="0.4"/>
      <stop offset="100%" stop-color="#3a332b" stop-opacity="0.7"/>
    </linearGradient>
    <linearGradient id="liquidGrad" x1="0%" y1="0%" x2="0%" y2="100%">
      <stop offset="0%" stop-color="#c8a45a" stop-opacity="0.5"/>
      <stop offset="100%" stop-color="#3a332b" stop-opacity="0.8"/>
    </linearGradient>
    <radialGradient id="vaporGlow" cx="50%" cy="80%" r="60%">
      <stop offset="0%" stop-color="#c8a45a" stop-opacity="0.15"/>
      <stop offset="100%" stop-color="#c8a45a" stop-opacity="0"/>
    </radialGradient>
    <linearGradient id="stopperGrad" x1="0%" y1="0%" x2="100%" y2="0%">
      <stop offset="0%" stop-color="#3a332b"/>
      <stop offset="50%" stop-color="#c8a45a"/>
      <stop offset="100%" stop-color="#3a332b"/>
    </linearGradient>
    <linearGradient id="shelfGrad" x1="0%" y1="0%" x2="0%" y2="100%">
      <stop offset="0%" stop-color="#3a332b"/>
      <stop offset="100%" stop-color="#1a1612"/>
    </linearGradient>
  </defs>
  <rect width="400" height="300" fill="#0d0b08"/>
  <ellipse cx="200" cy="100" rx="120" ry="100" fill="url(#vaporGlow)"/>
  <rect x="60" y="240" width="280" height="8" rx="2" fill="url(#shelfGrad)" stroke="#c8a45a" stroke-width="0.5"/>
  <ellipse cx="200" cy="242" rx="45" ry="4" fill="#000" opacity="0.3"/>
  <path d="M170,155 Q165,160 165,180 L165,235 Q165,240 175,240 L225,240 Q235,240 235,235 L235,180 Q235,160 230,155 Z" fill="url(#bottleGrad)" stroke="#c8a45a" stroke-width="1"/>
  <path d="M168,195 L168,235 Q168,238 175,238 L225,238 Q232,238 232,235 L232,195 Z" fill="url(#liquidGrad)" opacity="0.6"/>
  <path d="M168,195 Q200,190 232,195" fill="none" stroke="#c8a45a" stroke-width="0.6" opacity="0.5"/>
  <line x1="172" y1="165" x2="172" y2="230" stroke="#ede8dd" stroke-width="0.8" opacity="0.15"/>
  <line x1="176" y1="160" x2="176" y2="235" stroke="#ede8dd" stroke-width="1.5" opacity="0.1"/>
  <line x1="228" y1="165" x2="228" y2="230" stroke="#ede8dd" stroke-width="0.5" opacity="0.08"/>
  <rect x="178" y="200" width="44" height="25" rx="3" fill="none" stroke="#c8a45a" stroke-width="0.6" opacity="0.4"/>
  <rect x="181" y="203" width="38" height="19" rx="2" fill="none" stroke="#c8a45a" stroke-width="0.3" opacity="0.3"/>
  <path d="M200,205 L208,212 L200,219 L192,212 Z" fill="none" stroke="#c8a45a" stroke-width="0.5" opacity="0.35"/>
  <circle cx="200" cy="212" r="3" fill="none" stroke="#c8a45a" stroke-width="0.3" opacity="0.3"/>
  <rect x="190" y="130" width="20" height="28" rx="2" fill="url(#bottleGrad)" stroke="#c8a45a" stroke-width="0.8"/>
  <rect x="187" y="150" width="26" height="5" rx="1.5" fill="#3a332b" stroke="#c8a45a" stroke-width="0.5"/>
  <rect x="188" y="118" width="24" height="14" rx="3" fill="url(#stopperGrad)" stroke="#c8a45a" stroke-width="0.8"/>
  <ellipse cx="200" cy="112" rx="14" ry="10" fill="#3a332b" stroke="#c8a45a" stroke-width="1"/>
  <ellipse cx="200" cy="110" rx="8" ry="5" fill="none" stroke="#c8a45a" stroke-width="0.5" opacity="0.5"/>
  <path d="M188,112 Q200,105 212,112" fill="none" stroke="#e8d5a3" stroke-width="0.4" opacity="0.3"/>
  <g fill="none" stroke="#c8a45a" opacity="0.25">
    <path d="M195,108 Q188,90 192,70 Q196,50 188,30" stroke-width="1.5"/>
    <path d="M200,106 Q205,85 198,65 Q192,45 200,20" stroke-width="1.8"/>
    <path d="M207,108 Q215,88 210,68 Q205,48 215,28" stroke-width="1.3"/>
    <path d="M190,105 Q180,85 185,60 Q190,40 182,18" stroke-width="0.8"/>
    <path d="M212,106 Q222,82 218,58 Q214,38 225,15" stroke-width="0.8"/>
  </g>
  <g fill="#c8a45a" opacity="0.15">
    <circle cx="185" cy="50" r="2.5"/><circle cx="210" cy="40" r="2"/>
    <circle cx="195" cy="25" r="1.5"/><circle cx="220" cy="55" r="1.8"/>
    <circle cx="178" cy="35" r="1.2"/><circle cx="205" cy="18" r="1.5"/>
    <circle cx="192" cy="60" r="2"/><circle cx="215" cy="30" r="1"/>
  </g>
  <g transform="translate(80,140)" stroke="#c8a45a" fill="none" opacity="0.5">
    <path d="M30,100 Q25,80 20,60 Q18,40 25,20" stroke-width="1.2"/>
    <path d="M22,70 Q15,65 10,55" stroke-width="0.8"/>
    <path d="M10,55 Q8,52 5,53 Q3,56 5,59 Q8,62 12,60 Q14,58 10,55" fill="#3a332b" stroke-width="0.6"/>
    <path d="M24,50 Q18,42 15,32" stroke-width="0.8"/>
    <path d="M15,32 Q12,28 9,30 Q8,33 10,36 Q13,38 16,36 Q17,34 15,32" fill="#3a332b" stroke-width="0.6"/>
    <path d="M25,40 Q30,35 35,30" stroke-width="0.7"/>
    <path d="M35,30 Q38,27 37,24 Q34,23 32,25 Q31,28 33,31 Q35,32 35,30" fill="#3a332b" stroke-width="0.6"/>
    <circle cx="8" cy="56" r="2" fill="#c8a45a" opacity="0.4"/>
    <circle cx="12" cy="34" r="1.5" fill="#c8a45a" opacity="0.35"/>
  </g>
  <g transform="translate(285,150) scale(-1,1)" stroke="#c8a45a" fill="none" opacity="0.45">
    <path d="M-5,90 Q-8,70 -5,50 Q-2,30 -5,15" stroke-width="1"/>
    <path d="M-6,60 Q-12,55 -16,48" stroke-width="0.7"/>
    <path d="M-16,48 Q-19,45 -21,47 Q-21,50 -19,52 Q-16,53 -14,51" fill="#3a332b" stroke-width="0.5"/>
    <path d="M-4,40 Q2,35 6,28" stroke-width="0.7"/>
    <path d="M6,28 Q8,25 7,22 Q4,22 3,24 Q3,27 5,29" fill="#3a332b" stroke-width="0.5"/>
  </g>
  <g transform="translate(85,200)" opacity="0.3">
    <rect x="0" y="15" width="14" height="25" rx="2" fill="#3a332b" stroke="#c8a45a" stroke-width="0.5"/>
    <rect x="4" y="8" width="6" height="8" rx="1" fill="#3a332b" stroke="#c8a45a" stroke-width="0.4"/>
    <circle cx="7" cy="6" r="4" fill="#1a1612" stroke="#c8a45a" stroke-width="0.4"/>
  </g>
  <g transform="translate(300,205)" opacity="0.3">
    <rect x="0" y="12" width="12" height="23" rx="1.5" fill="#3a332b" stroke="#c8a45a" stroke-width="0.5"/>
    <rect x="3" y="5" width="6" height="8" rx="1" fill="#3a332b" stroke="#c8a45a" stroke-width="0.4"/>
    <rect x="2" y="3" width="8" height="3" rx="1" fill="#3a332b" stroke="#c8a45a" stroke-width="0.4"/>
  </g>
  <g transform="translate(335,215)" opacity="0.2">
    <path d="M0,25 Q5,10 15,5 Q25,3 30,8 Q35,15 30,25 Z" fill="#3a332b" stroke="#c8a45a" stroke-width="0.5"/>
    <line x1="8" y1="5" x2="-5" y2="-10" stroke="#c8a45a" stroke-width="1"/>
  </g>
  <path d="M10,10 L30,10 M10,10 L10,30" stroke="#c8a45a" stroke-width="1" opacity="0.3"/>
  <path d="M390,10 L370,10 M390,10 L390,30" stroke="#c8a45a" stroke-width="1" opacity="0.3"/>
  <path d="M10,290 L30,290 M10,290 L10,270" stroke="#c8a45a" stroke-width="1" opacity="0.3"/>
  <path d="M390,290 L370,290 M390,290 L390,270" stroke="#c8a45a" stroke-width="1" opacity="0.3"/>
  <rect x="5" y="5" width="390" height="290" rx="3" fill="none" stroke="#c8a45a" stroke-width="0.3" opacity="0.15"/>
</svg>
