<svg xmlns="http://www.w3.org/2000/svg" viewBox="0 0 200 160">
  <rect x="30" y="65" width="4" height="30" rx="2" fill="#c8a45a" opacity="0.5"/>
  <rect x="42" y="55" width="4" height="50" rx="2" fill="#c8a45a" opacity="0.6"/>
  <rect x="54" y="42" width="4" height="76" rx="2" fill="#c8a45a" opacity="0.7"/>
  <rect x="66" y="35" width="4" height="90" rx="2" fill="#c8a45a" opacity="0.8"/>
  <rect x="78" y="25" width="4" height="110" rx="2" fill="#c8a45a" opacity="0.9"/>
  <rect x="90" y="20" width="4" height="120" rx="2" fill="#c8a45a" opacity="1"/>
  <rect x="102" y="22" width="4" height="116" rx="2" fill="#c8a45a" opacity="0.95"/>
  <rect x="114" y="30" width="4" height="100" rx="2" fill="#c8a45a" opacity="0.85"/>
  <rect x="126" y="38" width="4" height="84" rx="2" fill="#c8a45a" opacity="0.75"/>
  <rect x="138" y="48" width="4" height="64" rx="2" fill="#c8a45a" opacity="0.65"/>
  <rect x="150" y="55" width="4" height="50" rx="2" fill="#c8a45a" opacity="0.55"/>
  <rect x="162" y="62" width="4" height="36" rx="2" fill="#c8a45a" opacity="0.45"/>
</svg>
